# xmcd
#
# Track frame offsets: 
#        150
#        18383
#        36580
#        53795
#        69789
#        87697
#        94072
#        109867
#        127863
#        142973
#        161294
#        182308
#        198599
#        208625
#
# Disc length: 2957 seconds
#
# Revision: 0
# Processed by: cddbd v1.5.2PL0 Copyright (c) Steve Scherf et al.
# Submitted via: ExactAudioCopy v1.3
#
DISCID=b90b8b0e
DTITLE=Dr. Will - I Want My Money Back
DYEAR=2020
DGENRE=Blues
TTITLE0=Hoodoo Moon
TTITLE1=High Jeopardy Thing
TTITLE2=Guilty Conscience Blues
TTITLE3=The Hell Outta Here
TTITLE4=Rosie's Boudoir
TTITLE5=Rosie Revisited
TTITLE6=Move On
TTITLE7=I'm Running
TTITLE8=Big Old Drum
TTITLE9=Walking Crippled
TTITLE10=The Truth Is
TTITLE11=Everybody Wants a Cookie
TTITLE12=High Jeopardy Thing Reprise
TTITLE13=Summer Wine (feat. Sandy Beach)
EXTD=
EXTT0=
EXTT1=
EXTT2=
EXTT3=
EXTT4=
EXTT5=
EXTT6=
EXTT7=
EXTT8=
EXTT9=
EXTT10=
EXTT11=
EXTT12=
EXTT13=
PLAYORDER=
